<svg version="1.2" xmlns="http://www.w3.org/2000/svg" viewBox="0 0 135 132" width="135" height="132"><style>.a{fill:#014040}.b{fill:#fff}</style><path class="a" d="m120.6 69.5c0 29-23.5 52.5-52.5 52.5-29 0-52.5-23.5-52.5-52.5 0-29 23.5-52.5 52.5-52.5 29 0 52.5 23.5 52.5 52.5z"/><path fill-rule="evenodd" class="b" d="m98.8 53.8v31.3c0 2.5-2 4.5-4.5 4.5h-52.3c-2.5 0-4.5-2-4.5-4.5v-31.3c0-2.4 2-4.5 4.5-4.5h52.3c2.5 0 4.5 2.1 4.5 4.5zm-3.3-0.7c-0.2-0.5-0.9-0.7-1.4-0.4l-26 14.5-26-14.5c-0.5-0.3-1.1-0.1-1.4 0.4-0.2 0.5-0.1 1.2 0.4 1.4l26.5 14.7q0.2 0.2 0.5 0.2h0.1q0.3 0 0.5-0.2l26.4-14.7c0.5-0.2 0.7-0.9 0.4-1.4z"/></svg>