<svg version="1.2" xmlns="http://www.w3.org/2000/svg" viewBox="0 0 534 594" width="534" height="594"><style>.a{fill:#fff}.b{fill:#014040}</style><path class="a" d="m18 281h496v259h-496z"/><path class="b" d="m494.8 234.2l-207.7-207.7c-11.6-11.7-30.6-11.7-42.2 0l-207.7 207.7c-11.7 11.6-21.2 34.6-21.2 51v36.6c109.7 81.5 245.5 129.7 392.6 129.7 36.6 0 72.5-3 107.4-8.7v-157.6c0-16.4-9.5-39.4-21.2-51z"/><path class="b" d="m408.6 479.1c-147.1 0-282.9-48.2-392.6-129.6v197.6c0 16.4 13.5 29.9 29.9 29.9h440.2c16.4 0 29.9-13.5 29.9-29.9v-76.7c-34.9 5.7-70.8 8.7-107.4 8.7z"/></svg>