<svg version="1.2" xmlns="http://www.w3.org/2000/svg" viewBox="0 0 316 326" width="316" height="326"><style>.a{fill:#014040}</style><path class="a" d="m159.4 310.1c-3.9 0-7.1-3.2-7.2-7.1 0-4 3.2-7.3 7.1-7.3 33.6-0.6 65.3-13.7 89.4-37 2.9-2.8 7.4-2.7 10.2 0.2 2.8 2.8 2.7 7.4-0.2 10.2-26.7 25.8-61.9 40.4-99.1 41q-0.1 0-0.2 0zm-4.5-277.8c-3.9 0-7.1-3.1-7.2-7.1-0.1-4 3.1-7.2 7.1-7.3h0.7q0.8-0.1 1.7-0.1c4 0 7.2 3.2 7.2 7.2 0 4-3.2 7.2-7.2 7.2h-0.7q-0.7 0.1-1.5 0.1 0 0-0.1 0zm-136.7 138.9c-4 0-7.2-3.2-7.2-7.2 0-42 18.2-82 49.9-109.8 3-2.7 7.5-2.4 10.2 0.6 2.6 3 2.3 7.6-0.7 10.2-28.6 25.1-45 61.2-45 99 0 4-3.2 7.2-7.2 7.2zm136.7 138.9q0 0-0.1 0c-37.2-0.6-72.4-15.2-99.2-41-2.8-2.8-2.9-7.4-0.1-10.2 2.7-2.9 7.3-3 10.2-0.2 24.1 23.3 55.8 36.4 89.3 37 4 0 7.2 3.3 7.1 7.3 0 3.9-3.3 7.1-7.2 7.1zm-94.2-39c-1.9 0-3.7-0.7-5.1-2-28.8-27.9-44.6-65.2-44.6-105.1 0-4 3.2-7.2 7.2-7.2 4 0 7.2 3.2 7.2 7.2 0 36 14.3 69.6 40.3 94.7 2.8 2.8 2.9 7.3 0.1 10.2-1.4 1.5-3.3 2.2-5.1 2.2zm96.5 39.1q-0.9 0-1.8-0.1h-0.6c-4-0.1-7.2-3.4-7.1-7.4 0.1-3.9 3.3-7 7.2-7q0.1 0 0.2 0 0.7 0 1.4 0.1h0.7c4 0 7.2 3.2 7.2 7.2 0 4-3.2 7.2-7.2 7.2zm0 0c-4 0-7.2-3.2-7.2-7.2 0-4 3.2-7.2 7.2-7.2h0.7q0.7-0.1 1.4-0.1c3.7 0 7.3 3 7.4 7 0 4-3.1 7.3-7.1 7.4h-0.7q-0.8 0.1-1.7 0.1zm91.5-243.4c-1.7 0-3.4-0.6-4.7-1.8-23.5-20.6-53.5-32.2-84.7-32.7-3.9 0-7.1-3.3-7.1-7.3 0.1-4 3.3-7 7.4-7.1 34.5 0.6 67.9 13.4 93.9 36.3 3 2.6 3.3 7.1 0.6 10.1-1.4 1.7-3.4 2.5-5.4 2.5zm-183.1 0c-2 0-4-0.8-5.4-2.5-2.6-3-2.3-7.5 0.7-10.1 26-22.9 59.3-35.7 93.9-36.3 4.2-0.2 7.3 3.1 7.3 7.1 0.1 4-3.1 7.3-7.1 7.3-31.1 0.5-61.2 12.1-84.6 32.7-1.4 1.2-3.1 1.8-4.8 1.8zm93.8-34.5q0 0-0.1 0-0.7 0-1.4-0.1h-0.7c-4 0-7.2-3.2-7.2-7.2 0-4 3.2-7.2 7.2-7.2q0.8 0 1.7 0.1h0.7c3.9 0.1 7.1 3.3 7.1 7.3-0.1 4-3.3 7.1-7.3 7.1zm94.3 238.8c-1.9 0-3.8-0.7-5.2-2.2-2.7-2.9-2.7-7.4 0.2-10.2 26-25.1 40.3-58.7 40.3-94.7 0-37.8-16.4-73.9-45-99-3-2.6-3.3-7.2-0.7-10.2 2.6-3 7.2-3.3 10.2-0.6 31.7 27.8 49.9 67.8 49.9 109.8 0 39.9-15.9 77.2-44.7 105.1-1.4 1.3-3.2 2-5 2zm-146.7-181.3c-1.2 0-2.4-0.2-3.5-0.9-3.5-1.9-4.7-6.3-2.8-9.8 12.7-22.8 30.8-42.9 52.3-58.2 3.3-2.3 7.8-1.5 10.1 1.7 2.3 3.3 1.5 7.8-1.8 10.1-19.7 14-36.4 32.5-48 53.4-1.3 2.4-3.8 3.7-6.3 3.7zm50.2-55.8c-2.3 0-4.5-1.1-5.9-3-2.3-3.3-1.5-7.8 1.7-10.1l0.8-0.6q0.8-0.6 1.6-1.1c3.2-2.3 7.7-1.5 10 1.8 2.2 3.3 1.4 7.8-1.9 10q-0.4 0.4-0.8 0.7-0.7 0.5-1.4 1c-1.2 0.9-2.7 1.3-4.1 1.3zm-53.9 211.2c-2.7 0-5.2-1.5-6.5-4-12-24.4-18.1-50.4-18.1-77.2 0-4 3.3-7.2 7.3-7.2 3.9 0 7.2 3.2 7.2 7.2 0 24.6 5.5 48.4 16.6 70.8 1.7 3.6 0.3 7.9-3.3 9.7-1 0.5-2.1 0.7-3.2 0.7zm56.1 64.9c-1.4 0-2.8-0.4-4-1.2q-0.8-0.6-1.6-1.2l-0.8-0.6c-3.2-2.3-4-6.8-1.7-10.1 2.3-3.2 6.8-4 10-1.7q0.7 0.5 1.3 1 0.4 0.3 0.9 0.6c3.3 2.2 4.1 6.7 1.9 10-1.4 2.1-3.6 3.2-6 3.2zm-2.2-1.7c-1.5 0-2.9-0.4-4.2-1.3-23.8-16.9-43.3-39.7-56.2-65.9-1.7-3.6-0.2-7.9 3.3-9.7 3.6-1.7 7.9-0.3 9.7 3.3 11.8 24.1 29.7 45 51.5 60.5 3.3 2.3 4.1 6.8 1.8 10.1-1.4 1.9-3.7 3-5.9 3zm-71.2-137.2c-4 0-7.3-3.2-7.3-7.2 0-29.6 7.6-59 22-84.9 1.9-3.4 6.3-4.7 9.8-2.8 3.5 2 4.7 6.4 2.8 9.8-13.2 23.8-20.1 50.7-20.1 77.9 0 4-3.3 7.2-7.2 7.2zm21-81.3q-1.2 0-2.5-0.5c-15.8-5.7-30.4-13.9-43.4-24.2-3.1-2.5-3.6-7-1.1-10.1 2.5-3.1 7-3.6 10.1-1.2 11.8 9.4 25 16.8 39.4 22 3.7 1.3 5.6 5.5 4.3 9.2-1.1 2.9-3.9 4.8-6.8 4.8zm100.4 0c-3 0-5.8-1.9-6.8-4.8-1.4-3.7 0.6-7.9 4.3-9.2 14.3-5.2 27.6-12.6 39.3-22 3.2-2.4 7.7-1.9 10.2 1.2 2.4 3.1 1.9 7.6-1.2 10.1-13 10.3-27.6 18.5-43.4 24.2q-1.2 0.5-2.4 0.5zm-50.2 8.9c-4 0-7.2-3.2-7.2-7.2 0-4 3.2-7.2 7.2-7.2 16.1 0 32.1-2.9 47.7-8.5 3.7-1.4 7.9 0.5 9.2 4.3 1.4 3.7-0.5 7.9-4.3 9.2-17.2 6.2-34.9 9.4-52.6 9.4zm0 0c-17.8 0-35.5-3.2-52.7-9.4-3.7-1.3-5.6-5.5-4.3-9.2 1.4-3.8 5.5-5.7 9.3-4.3 15.5 5.6 31.6 8.5 47.7 8.5 4 0 7.2 3.2 7.2 7.2 0 4-3.2 7.2-7.2 7.2zm96.5 172.3c-1.7 0-3.3-0.6-4.7-1.8-12.1-10.5-25.7-18.7-40.6-24.6-3.7-1.5-5.5-5.6-4.1-9.3 1.5-3.7 5.7-5.6 9.4-4.1 16.4 6.4 31.4 15.6 44.7 27.2 3 2.6 3.4 7.1 0.8 10.1-1.5 1.7-3.5 2.5-5.5 2.5zm-42.6-25.9q-1.4 0-2.7-0.5c-16.5-6.5-33.8-9.8-51.2-9.8-4 0-7.2-3.2-7.2-7.2 0-4 3.2-7.2 7.2-7.2 19.3 0 38.3 3.6 56.5 10.8 3.7 1.5 5.5 5.6 4.1 9.3-1.2 2.9-3.9 4.6-6.7 4.6zm-107.8 0c-2.9 0-5.6-1.7-6.7-4.6-1.5-3.7 0.4-7.8 4.1-9.3 18.2-7.2 37.2-10.8 56.5-10.8 4 0 7.2 3.2 7.2 7.2 0 4-3.2 7.2-7.2 7.2-17.5 0-34.7 3.3-51.3 9.8q-1.3 0.5-2.6 0.5zm-42.6 25.9c-2.1 0-4.1-0.8-5.5-2.5-2.6-3-2.3-7.5 0.7-10.1 13.3-11.6 28.4-20.8 44.8-27.2 3.7-1.5 7.9 0.4 9.3 4.1 1.5 3.7-0.4 7.8-4.1 9.3-14.8 5.9-28.5 14.1-40.5 24.6-1.4 1.2-3.1 1.8-4.7 1.8zm167.7-99.9c-4 0-7.2-3.2-7.2-7.2 0-27.2-7-54.1-20.1-77.9-2-3.4-0.7-7.8 2.8-9.8 3.4-1.9 7.8-0.6 9.8 2.8 14.3 25.9 21.9 55.3 21.9 84.9 0 4-3.2 7.2-7.2 7.2zm-71.2-137.2c-1.4 0-2.9-0.4-4.1-1.3q-0.8-0.5-1.4-1-0.4-0.4-0.9-0.7c-3.3-2.2-4.1-6.7-1.8-10 2.2-3.3 6.7-4.1 10-1.8q0.8 0.5 1.5 1.1l0.8 0.6c3.3 2.3 4.1 6.7 1.8 10-1.4 2-3.6 3.1-5.9 3.1zm-2.3 276.1c-2.3 0-4.6-1.1-6-3.2-2.2-3.3-1.3-7.8 2-10q0.4-0.3 0.8-0.6 0.7-0.5 1.4-1c3.2-2.3 7.7-1.5 10 1.8 2.3 3.2 1.5 7.7-1.8 10l-0.8 0.6q-0.7 0.6-1.6 1.2c-1.2 0.8-2.6 1.2-4 1.2zm56.1-64.9c-1 0-2.1-0.2-3.1-0.7-3.6-1.8-5.1-6.1-3.3-9.7 11-22.4 16.6-46.2 16.6-70.8 0-4 3.2-7.2 7.2-7.2 4 0 7.2 3.2 7.2 7.2 0 26.8-6.1 52.8-18.1 77.2-1.2 2.5-3.8 4-6.5 4zm-53.8 63.2c-2.3 0-4.5-1.1-5.9-3-2.3-3.3-1.5-7.8 1.7-10.1 21.9-15.5 39.7-36.4 51.6-60.5 1.7-3.6 6.1-5 9.6-3.3 3.6 1.8 5.1 6.1 3.3 9.7-12.9 26.2-32.3 49-56.2 65.9-1.2 0.9-2.7 1.3-4.1 1.3zm50.2-218.6c-2.6 0-5-1.3-6.3-3.7-11.7-20.9-28.3-39.4-48.1-53.4-3.2-2.3-4-6.8-1.7-10.1 2.3-3.2 6.8-4 10-1.7 21.6 15.3 39.7 35.4 52.4 58.2 1.9 3.5 0.6 7.9-2.8 9.8-1.2 0.7-2.4 0.9-3.5 0.9zm-121.4 81.4h-67.8c-4 0-7.2-3.2-7.2-7.2 0-4 3.2-7.2 7.2-7.2h67.8c3.9 0 7.2 3.2 7.2 7.2 0 4-3.3 7.2-7.2 7.2zm142.4 0h-71.2c-4 0-7.2-3.2-7.2-7.2 0-4 3.2-7.2 7.2-7.2h71.2c4 0 7.2 3.2 7.2 7.2 0 4-3.2 7.2-7.2 7.2zm-71.2 0h-71.2c-4 0-7.3-3.2-7.3-7.2 0-4 3.3-7.2 7.3-7.2h71.2c4 0 7.2 3.2 7.2 7.2 0 4-3.2 7.2-7.2 7.2zm134.9 0h-63.7c-4 0-7.2-3.2-7.2-7.2 0-4 3.2-7.2 7.2-7.2h63.7c4 0 7.2 3.2 7.2 7.2 0 4-3.2 7.2-7.2 7.2zm-134.9-72.4c-4 0-7.2-3.2-7.2-7.2v-64.8c0-4 3.2-7.2 7.2-7.2 4 0 7.2 3.2 7.2 7.2v64.8c0 4-3.2 7.2-7.2 7.2zm0 72.4c-4 0-7.2-3.2-7.2-7.2v-72.4c0-4 3.2-7.2 7.2-7.2 4 0 7.2 3.2 7.2 7.2v72.4c0 4-3.2 7.2-7.2 7.2zm0 137.2c-4 0-7.2-3.2-7.2-7.2v-73.5c0-4 3.2-7.2 7.2-7.2 4 0 7.2 3.2 7.2 7.2v73.5c0 4-3.2 7.2-7.2 7.2zm0-274.4c-4 0-7.2-3.2-7.2-7.2v-1.8c0-4 3.2-7.2 7.2-7.2 4 0 7.2 3.2 7.2 7.2v1.8c0 4-3.2 7.2-7.2 7.2zm0 200.9c-4 0-7.2-3.2-7.2-7.2v-63.7c0-4 3.2-7.2 7.2-7.2 4 0 7.2 3.2 7.2 7.2v63.7c0 4-3.2 7.2-7.2 7.2zm0 75.3c-4 0-7.2-3.2-7.2-7.2v-1.8c0-4 3.2-7.2 7.2-7.2 4 0 7.2 3.2 7.2 7.2v1.8c0 4-3.2 7.2-7.2 7.2z"/></svg>